<svg xmlns="http://www.w3.org/2000/svg" version="1.1" xmlns:xlink="http://www.w3.org/1999/xlink" xmlns:svgjs="http://svgjs.dev/svgjs" width="2000" height="1500" viewBox="0 0 2000 1500"><rect width="2000" height="1500" fill="#000000"></rect><g transform="matrix(0.75,0,0,0.75,249.090909090909,304.12983968227206)"><svg viewBox="0 0 396 247" data-background-color="#000000" preserveAspectRatio="xMidYMid meet" height="1247" width="2000" xmlns="http://www.w3.org/2000/svg" xmlns:xlink="http://www.w3.org/1999/xlink"><g id="tight-bounds" transform="matrix(1,0,0,1,0.2400000000000091,-0.09999999999999432)"><svg viewBox="0 0 395.52 247.2" height="247.2" width="395.52"><rect width="395.52" height="247.2" fill="url(#8599eb92-0eee-4223-a7f6-1475e1d1a628)" mask="url(#bd17040e-e971-4681-8429-31405594835a)" data-fill-palette-color="tertiary"></rect><g><svg></svg></g><g><svg viewBox="0 0 395.52 247.2" height="247.2" width="395.52"><g transform="matrix(1,0,0,1,79.31915023255813,47.215199999999996)"><svg viewBox="0 0 236.88169953488372 152.7696" height="152.7696" width="236.88169953488372"><g><svg viewBox="0 0 236.88169953488372 152.7696" height="152.7696" width="236.88169953488372"><g><svg viewBox="0 0 236.88169953488372 152.7696" height="152.7696" width="236.88169953488372"><g><svg viewBox="0 0 236.88169953488372 152.7696" height="152.7696" width="236.88169953488372"><g id="textblocktransform"><svg viewBox="0 0 236.88169953488372 152.7696" height="152.7696" width="236.88169953488372" id="textblock"><g><svg viewBox="0 0 236.88169953488372 152.7696" height="152.7696" width="236.88169953488372"><g transform="matrix(1,0,0,1,0,0)"><svg width="236.88169953488372" viewBox="5.44 -39.99 65.11 41.99" height="152.7696" data-palette-color="url(#56e67b43-d36d-4f1f-aafd-cd81f71ebbb3)"></svg></g></svg></g></svg></g></svg></g><g></g></svg></g></svg></g></svg></g><g><path d="M160.568 11.15A118.441 118.441 0 0 1 234.952 11.15L221.175 11.15A104.664 104.664 0 0 0 174.345 11.15L160.568 11.15M160.568 236.05A118.441 118.441 0 0 0 234.952 236.05L221.175 236.05A104.664 104.664 0 0 1 174.345 236.05L160.568 236.05" fill="url(#8599eb92-0eee-4223-a7f6-1475e1d1a628)" stroke="transparent" data-fill-palette-color="tertiary"></path></g></svg></g><defs></defs><mask id="e8a746b0-5558-4a77-8b31-4c3df0649941"><g id="SvgjsG3777"><svg viewBox="0 0 395.52 247.2" height="247.2" width="395.52"><g><svg></svg></g><g><svg viewBox="0 0 395.52 247.2" height="247.2" width="395.52"><g transform="matrix(1,0,0,1,79.31915023255813,47.215199999999996)"><svg viewBox="0 0 236.88169953488372 152.7696" height="152.7696" width="236.88169953488372"><g><svg viewBox="0 0 236.88169953488372 152.7696" height="152.7696" width="236.88169953488372"><g><svg viewBox="0 0 236.88169953488372 152.7696" height="152.7696" width="236.88169953488372"><g><svg viewBox="0 0 236.88169953488372 152.7696" height="152.7696" width="236.88169953488372"><g id="SvgjsG3776"><svg viewBox="0 0 236.88169953488372 152.7696" height="152.7696" width="236.88169953488372" id="SvgjsSvg3775"><g><svg viewBox="0 0 236.88169953488372 152.7696" height="152.7696" width="236.88169953488372"><g transform="matrix(1,0,0,1,0,0)"><svg width="236.88169953488372" viewBox="5.44 -39.99 65.11 41.99" height="152.7696" data-palette-color="url(#56e67b43-d36d-4f1f-aafd-cd81f71ebbb3)"><path d="M5.44 1.25L5.44-39.26 17.99-39.26Q23.34-39.26 26.59-38.06L26.59-38.06Q29.42-37.01 31.15-34.96L31.15-34.96Q33.23-32.52 33.23-29.1L33.23-29.1Q33.23-24.95 30.44-22.49L30.44-22.49Q28.32-20.61 24.73-19.9L24.73-19.9 24.73-19.75Q29.05-18.92 31.59-16.99L31.59-16.99Q35.08-14.33 35.08-9.99L35.08-9.99Q35.08-3.52 29.37-0.68L29.37-0.68Q25.44 1.25 19.53 1.25L19.53 1.25 5.44 1.25ZM17.68-35.5L9.99-35.5 9.99-21.7 17.33-21.7Q21.39-21.7 24.34-22.95L24.34-22.95Q28.27-24.61 28.27-28.52L28.27-28.52Q28.27-35.5 17.68-35.5L17.68-35.5ZM17.58-18.04L9.99-18.04 9.99-2.56 18.95-2.56Q23.54-2.56 26.12-3.91L26.12-3.91Q27.15-4.42 27.98-5.22L27.98-5.22Q30.03-7.25 30.03-10.21L30.03-10.21Q30.03-14.11 26.15-16.16L26.15-16.16Q22.53-18.04 17.58-18.04L17.58-18.04ZM40.55-4.71L43.36-7.96Q48.56-2.1 56.52-2.1L56.52-2.1Q60.64-2.1 62.91-3.81L62.91-3.81Q65.5-5.76 65.5-9.06L65.5-9.06Q65.5-12.38 62.96-14.38L62.96-14.38Q60.89-16.02 55.81-17.75L55.81-17.75 53.15-18.65Q48.22-20.34 46.02-22.05L46.02-22.05Q42.65-24.68 42.65-29.1L42.65-29.1Q42.65-34.03 46.12-36.91L46.12-36.91Q49.78-39.99 55.83-39.99L55.83-39.99Q63.25-39.99 68.94-35.5L68.94-35.5 66.5-32.01Q61.98-36.08 55.81-36.08L55.81-36.08Q51.71-36.08 49.51-34.18L49.51-34.18Q47.56-32.47 47.56-29.54L47.56-29.54Q47.56-27.12 49.29-25.51L49.29-25.51Q51.19-23.73 56.2-22.09L56.2-22.09 59.1-21.14Q65.01-19.21 67.65-16.55L67.65-16.55Q70.55-13.62 70.55-9.3L70.55-9.3Q70.55-3.81 66.38-0.71L66.38-0.71Q62.74 2 56.42 2L56.42 2Q46.43 2 40.55-4.71L40.55-4.71Z" opacity="1" transform="matrix(1,0,0,1,0,0)" fill="white" class="wordmark-text-0" id="SvgjsPath3774"></path></svg></g></svg></g></svg></g></svg></g><g></g></svg></g></svg></g></svg></g><g><path d="M160.568 11.15A118.441 118.441 0 0 1 234.952 11.15L221.175 11.15A104.664 104.664 0 0 0 174.345 11.15L160.568 11.15M160.568 236.05A118.441 118.441 0 0 0 234.952 236.05L221.175 236.05A104.664 104.664 0 0 1 174.345 236.05L160.568 236.05" fill="black" stroke="transparent"></path></g></svg></g><defs><mask></mask></defs></svg><rect width="395.52" height="247.2" fill="black" stroke="none" visibility="hidden"></rect></g></mask><linearGradient x1="0" x2="1" y1="0.578" y2="0.595" id="56e67b43-d36d-4f1f-aafd-cd81f71ebbb3"><stop stop-color="#6ee2f5" offset="0"></stop><stop stop-color="#6454f0" offset="1"></stop></linearGradient><rect width="395.52" height="247.2" fill="url(#56e67b43-d36d-4f1f-aafd-cd81f71ebbb3)" mask="url(#e8a746b0-5558-4a77-8b31-4c3df0649941)" data-fill-palette-color="primary"></rect><mask id="bd17040e-e971-4681-8429-31405594835a"><g id="SvgjsG3800"><svg viewBox="0 0 395.52 247.2" height="247.2" width="395.52"><g><svg></svg></g><g><svg viewBox="0 0 395.52 247.2" height="247.2" width="395.52"><g transform="matrix(1,0,0,1,79.31915023255813,47.215199999999996)"><svg viewBox="0 0 236.88169953488372 152.7696" height="152.7696" width="236.88169953488372"><g><svg viewBox="0 0 236.88169953488372 152.7696" height="152.7696" width="236.88169953488372"><g><svg viewBox="0 0 236.88169953488372 152.7696" height="152.7696" width="236.88169953488372"><g><svg viewBox="0 0 236.88169953488372 152.7696" height="152.7696" width="236.88169953488372"><g id="SvgjsG3799"><svg viewBox="0 0 236.88169953488372 152.7696" height="152.7696" width="236.88169953488372" id="SvgjsSvg3798"><g><svg viewBox="0 0 236.88169953488372 152.7696" height="152.7696" width="236.88169953488372"><g transform="matrix(1,0,0,1,0,0)"><svg width="236.88169953488372" viewBox="5.44 -39.99 65.11 41.99" height="152.7696" data-palette-color="url(#56e67b43-d36d-4f1f-aafd-cd81f71ebbb3)"></svg></g></svg></g></svg></g></svg></g><g></g></svg></g></svg></g></svg></g><g><path d="M160.568 11.15A118.441 118.441 0 0 1 234.952 11.15L221.175 11.15A104.664 104.664 0 0 0 174.345 11.15L160.568 11.15M160.568 236.05A118.441 118.441 0 0 0 234.952 236.05L221.175 236.05A104.664 104.664 0 0 1 174.345 236.05L160.568 236.05" fill="white" stroke="transparent"></path></g></svg></g><defs><mask></mask></defs><mask><g id="SvgjsG3797"><svg viewBox="0 0 395.52 247.2" height="247.2" width="395.52"><g><svg></svg></g><g><svg viewBox="0 0 395.52 247.2" height="247.2" width="395.52"><g transform="matrix(1,0,0,1,79.31915023255813,47.215199999999996)"><svg viewBox="0 0 236.88169953488372 152.7696" height="152.7696" width="236.88169953488372"><g><svg viewBox="0 0 236.88169953488372 152.7696" height="152.7696" width="236.88169953488372"><g><svg viewBox="0 0 236.88169953488372 152.7696" height="152.7696" width="236.88169953488372"><g><svg viewBox="0 0 236.88169953488372 152.7696" height="152.7696" width="236.88169953488372"><g id="SvgjsG3796"><svg viewBox="0 0 236.88169953488372 152.7696" height="152.7696" width="236.88169953488372" id="SvgjsSvg3795"><g><svg viewBox="0 0 236.88169953488372 152.7696" height="152.7696" width="236.88169953488372"><g transform="matrix(1,0,0,1,0,0)"><svg width="236.88169953488372" viewBox="5.44 -39.99 65.11 41.99" height="152.7696" data-palette-color="url(#56e67b43-d36d-4f1f-aafd-cd81f71ebbb3)"><path d="M5.44 1.25L5.44-39.26 17.99-39.26Q23.34-39.26 26.59-38.06L26.59-38.06Q29.42-37.01 31.15-34.96L31.15-34.96Q33.23-32.52 33.23-29.1L33.23-29.1Q33.23-24.95 30.44-22.49L30.44-22.49Q28.32-20.61 24.73-19.9L24.73-19.9 24.73-19.75Q29.05-18.92 31.59-16.99L31.59-16.99Q35.08-14.33 35.08-9.99L35.08-9.99Q35.08-3.52 29.37-0.68L29.37-0.68Q25.44 1.25 19.53 1.25L19.53 1.25 5.44 1.25ZM17.68-35.5L9.99-35.5 9.99-21.7 17.33-21.7Q21.39-21.7 24.34-22.95L24.34-22.95Q28.27-24.61 28.27-28.52L28.27-28.52Q28.27-35.5 17.68-35.5L17.68-35.5ZM17.58-18.04L9.99-18.04 9.99-2.56 18.95-2.56Q23.54-2.56 26.12-3.91L26.12-3.91Q27.15-4.42 27.98-5.22L27.98-5.22Q30.03-7.25 30.03-10.21L30.03-10.21Q30.03-14.11 26.15-16.16L26.15-16.16Q22.53-18.04 17.58-18.04L17.58-18.04ZM40.55-4.71L43.36-7.96Q48.56-2.1 56.52-2.1L56.52-2.1Q60.64-2.1 62.91-3.81L62.91-3.81Q65.5-5.76 65.5-9.06L65.5-9.06Q65.5-12.38 62.96-14.38L62.96-14.38Q60.89-16.02 55.81-17.75L55.81-17.75 53.15-18.65Q48.22-20.34 46.02-22.05L46.02-22.05Q42.65-24.68 42.65-29.1L42.65-29.1Q42.65-34.03 46.12-36.91L46.12-36.91Q49.78-39.99 55.83-39.99L55.83-39.99Q63.25-39.99 68.94-35.5L68.94-35.5 66.5-32.01Q61.98-36.08 55.81-36.08L55.81-36.08Q51.71-36.08 49.51-34.18L49.51-34.18Q47.56-32.47 47.56-29.54L47.56-29.54Q47.56-27.12 49.29-25.51L49.29-25.51Q51.19-23.73 56.2-22.09L56.2-22.09 59.1-21.14Q65.01-19.21 67.65-16.55L67.65-16.55Q70.55-13.62 70.55-9.3L70.55-9.3Q70.55-3.81 66.38-0.71L66.38-0.71Q62.74 2 56.42 2L56.42 2Q46.43 2 40.55-4.71L40.55-4.71Z" opacity="1" transform="matrix(1,0,0,1,0,0)" fill="black" class="wordmark-text-0" id="SvgjsPath3794"></path></svg></g></svg></g></svg></g></svg></g><g></g></svg></g></svg></g></svg></g><g><path d="M160.568 11.15A118.441 118.441 0 0 1 234.952 11.15L221.175 11.15A104.664 104.664 0 0 0 174.345 11.15L160.568 11.15M160.568 236.05A118.441 118.441 0 0 0 234.952 236.05L221.175 236.05A104.664 104.664 0 0 1 174.345 236.05L160.568 236.05" fill="black" stroke="transparent"></path></g></svg></g><defs><mask></mask></defs></svg><rect width="395.52" height="247.2" fill="black" stroke="none" visibility="hidden"></rect></g></mask></svg><rect width="395.52" height="247.2" fill="black" stroke="none" visibility="hidden"></rect></g></mask><linearGradient x1="0" x2="1" y1="0.578" y2="0.595" id="8599eb92-0eee-4223-a7f6-1475e1d1a628"><stop stop-color="#6ee2f5" offset="0"></stop><stop stop-color="#6454f0" offset="1"></stop></linearGradient></svg><rect width="395.52" height="247.2" fill="none" stroke="none" visibility="hidden"></rect></g></svg></g></svg>