<svg xmlns="http://www.w3.org/2000/svg" version="1.1" xmlns:xlink="http://www.w3.org/1999/xlink" xmlns:svgjs="http://svgjs.dev/svgjs" width="1500" height="1500" viewBox="0 0 1500 1500"><rect width="1500" height="1500" fill="#243837"></rect><g transform="matrix(0.6666666666666666,0,0,0.6666666666666666,249.39393939393938,438.5856950067477)"><svg viewBox="0 0 396 247" data-background-color="#243837" preserveAspectRatio="xMidYMid meet" height="935" width="1500" xmlns="http://www.w3.org/2000/svg" xmlns:xlink="http://www.w3.org/1999/xlink"><g id="tight-bounds" transform="matrix(1,0,0,1,0.2400000000000091,-0.09999999999999432)"><svg viewBox="0 0 395.52 247.2" height="247.2" width="395.52"><g><svg></svg></g><g><svg viewBox="0 0 395.52 247.2" height="247.2" width="395.52"><g transform="matrix(1,0,0,1,130.97786057142855,47.215199999999996)"><svg viewBox="0 0 133.56427885714285 152.7696" height="152.7696" width="133.56427885714285"><g><svg viewBox="0 0 133.56427885714285 152.7696" height="152.7696" width="133.56427885714285"><g><svg viewBox="0 0 133.56427885714285 152.7696" height="152.7696" width="133.56427885714285"><g><svg viewBox="0 0 133.56427885714285 152.7696" height="152.7696" width="133.56427885714285"><g id="textblocktransform"><svg viewBox="0 0 133.56427885714285 152.7696" height="152.7696" width="133.56427885714285" id="textblock"><g><svg viewBox="0 0 133.56427885714285 152.7696" height="152.7696" width="133.56427885714285"><g transform="matrix(1,0,0,1,0,0)"><svg width="133.56427885714285" viewBox="1.05 -35 30.599999999999998 35" height="152.7696" data-palette-color="#fe7833"><path d="M1.05-34.05L1.05-35 16-35Q22.95-35 26.43-33.13 29.9-31.25 29.9-26.8L29.9-26.8Q29.9-19.95 21.65-18.6L21.65-18.6 21.65-18.5Q31.65-17.25 31.65-9.8L31.65-9.8Q31.65-4.35 27.55-2.18 23.45 0 15.75 0L15.75 0 1.05 0 1.05-0.95 4.3-0.95 4.3-34.05 1.05-34.05ZM15.2-17.7L14.05-17.7 14.05-0.95 16.4-0.95Q19.15-0.95 20.25-2.85 21.35-4.75 21.35-8.45L21.35-8.45 21.35-11.1Q21.35-14.4 20-16.05 18.65-17.7 15.2-17.7L15.2-17.7ZM15.65-34.05L14.05-34.05 14.05-18.65 15.35-18.65Q17.95-18.65 18.98-20.23 20-21.8 20-25.05L20-25.05 20-27.4Q20-31.1 19.1-32.58 18.2-34.05 15.65-34.05L15.65-34.05Z" opacity="1" transform="matrix(1,0,0,1,0,0)" fill="#fe7833" class="wordmark-text-0" data-fill-palette-color="primary" id="text-0"></path></svg></g></svg></g></svg></g></svg></g></svg></g></svg></g></svg></g><g><path d="M0 123.6c0-68.262 55.338-123.6 123.6-123.6 30.402 0 58.24 10.976 79.768 29.183l-11.147 0c-19.26-14.022-42.974-22.294-68.621-22.295-64.458 0-116.712 52.254-116.712 116.712 0 64.458 52.254 116.712 116.712 116.712 25.647 0 49.361-8.272 68.621-22.295l11.147 0c-21.528 18.206-49.366 29.183-79.768 29.183-68.262 0-123.6-55.338-123.6-123.6z" fill="#fe7833" stroke="transparent" data-fill-palette-color="tertiary"></path></g></svg></g><defs></defs></svg><rect width="395.52" height="247.2" fill="none" stroke="none" visibility="hidden"></rect></g></svg></g></svg>